<?xml version="1.0" encoding="utf-8"?>
<!-- Generator: Adobe Illustrator 26.0.2, SVG Export Plug-In . SVG Version: 6.00 Build 0)  -->
<svg version="1.1" id="Layer_1" xmlns="http://www.w3.org/2000/svg" xmlns:xlink="http://www.w3.org/1999/xlink" x="0px" y="0px"
	 viewBox="0 0 780 500" style="enable-background:new 0 0 780 500;" xml:space="preserve">
<style type="text/css">
	.st0{fill:#16366F;}
	.st1{fill:#D9222A;}
	.st2{fill:#EE9F2D;}
	.st3{fill:#FFFFFF;}
</style>
<path class="st0" d="M40,0h700c22.1,0,40,17.9,40,40v420c0,22.1-17.9,40-40,40H40c-22.1,0-40-17.9-40-40V40C0,17.9,17.9,0,40,0z"/>
<path class="st1" d="M449,250c0,99.1-80.4,179.5-179.5,179.5S90,349.1,90,250c0-99.1,80.4-179.5,179.5-179.5
	C368.6,70.5,449,150.9,449,250"/>
<path class="st2" d="M510.5,70.5c-46.4,0-88.6,17.6-120.5,46.5c-6.5,5.9-12.5,12.2-18.1,19h36.3c5,6,9.5,12.4,13.7,19h-63.6
	c-3.8,6.1-7.3,12.5-10.3,19h84.3c2.9,6.2,5.4,12.5,7.6,19h-99.5c-2.1,6.2-3.8,12.6-5.2,19H445c2.7,12.5,4,25.2,4,38
	c0,19.9-3.3,39.1-9.3,57h-99.5c2.2,6.5,4.7,12.8,7.6,19h84.3c-3.1,6.5-6.5,12.9-10.3,19h-63.6c4.2,6.6,8.7,13,13.7,19h36.3
	c-5.6,6.8-11.6,13.1-18.1,19c31.9,28.9,74.1,46.5,120.5,46.5c99.1,0,179.5-80.4,179.5-179.5C690,150.9,609.6,70.5,510.5,70.5"/>
<path d="M666.1,350.1c0-3.2,2.6-5.8,5.8-5.8s5.8,2.6,5.8,5.8c0,3.2-2.6,5.8-5.8,5.8C668.7,355.9,666.1,353.3,666.1,350.1z
	 M671.9,354.5c2.4,0,4.4-2,4.4-4.4c0-2.4-2-4.4-4.4-4.4h0c-2.4,0-4.4,2-4.4,4.4v0C667.5,352.5,669.4,354.5,671.9,354.5
	C671.9,354.5,671.9,354.5,671.9,354.5z M671.1,352.6h-1.2v-5.1h2.1c0.5,0,0.9,0,1.3,0.3c0.4,0.3,0.6,0.8,0.6,1.3
	c0,0.6-0.3,1.1-0.9,1.3l0.9,2.2h-1.3l-0.8-2h-0.9L671.1,352.6L671.1,352.6L671.1,352.6z M671.1,349.7h0.7c0.2,0,0.5,0,0.7-0.1
	c0.2-0.1,0.3-0.4,0.3-0.6c0-0.2-0.1-0.4-0.3-0.5c-0.2-0.1-0.5-0.1-0.8-0.1h-0.6V349.7L671.1,349.7z M227.6,269.7
	c-2-0.2-2.9-0.3-4.4-0.3c-11,0-16.6,3.8-16.6,11.3c0,4.6,2.7,7.5,7,7.5C221.5,288.2,227.3,280.6,227.6,269.7z M241.8,302.7h-16.1
	l0.4-7.7c-4.9,6.1-11.5,9-20.4,9c-10.6,0-17.8-8.2-17.8-20.2c0-18,12.6-28.5,34.2-28.5c2.2,0,5,0.2,7.9,0.6c0.6-2.4,0.8-3.5,0.8-4.8
	c0-4.9-3.4-6.7-12.5-6.7c-9.5-0.1-17.4,2.3-20.6,3.3c0.2-1.2,2.7-16.7,2.7-16.7c9.7-2.8,16.1-3.9,23.3-3.9
	c16.7,0,25.6,7.5,25.6,21.7c0,3.8-0.6,8.5-1.6,14.7C245.9,274.1,242.3,297,241.8,302.7L241.8,302.7z M179.6,302.7h-19.5l11.2-70
	l-24.9,70h-13.3l-1.6-69.6l-11.7,69.6h-18.2l15.2-91.1h28l1.7,51l17.1-51h31.2L179.6,302.7 M534.6,269.7c-2-0.2-2.9-0.3-4.3-0.3
	c-11,0-16.6,3.8-16.6,11.3c0,4.6,2.7,7.5,7,7.5C528.5,288.2,534.3,280.6,534.6,269.7z M548.8,302.7h-16.1l0.4-7.7
	c-4.9,6.1-11.5,9-20.4,9c-10.6,0-17.8-8.2-17.8-20.2c0-18,12.6-28.5,34.2-28.5c2.2,0,5,0.2,7.9,0.6c0.6-2.4,0.8-3.5,0.8-4.8
	c0-4.9-3.4-6.7-12.5-6.7c-9.5-0.1-17.4,2.3-20.6,3.3c0.2-1.2,2.7-16.7,2.7-16.7c9.7-2.8,16.1-3.9,23.3-3.9
	c16.7,0,25.6,7.5,25.6,21.7c0,3.8-0.6,8.5-1.6,14.7C552.9,274.1,549.3,297,548.8,302.7L548.8,302.7z M328.4,301.5
	c-5.3,1.7-9.5,2.4-14,2.4c-10,0-15.4-5.7-15.4-16.3c-0.1-3.3,1.4-11.9,2.7-19.7c1.1-6.9,8.5-50.5,8.5-50.5h19.4l-2.3,11.2h11.7
	l-2.6,17.8h-11.7c-2.2,14.1-5.5,31.6-5.5,34c0,3.8,2,5.5,6.7,5.5c2.2,0,3.9-0.2,5.3-0.7L328.4,301.5 M387.8,300.9
	c-6.7,2-13.1,3-19.9,3c-21.7,0-33-11.3-33-33c0-25.3,14.4-43.9,33.9-43.9c16,0,26.2,10.4,26.2,26.8c0,5.4-0.7,10.7-2.4,18.2H354
	c-1.3,10.7,5.6,15.2,16.8,15.2c6.9,0,13.2-1.4,20.1-4.7L387.8,300.9z M376.9,257c0.1-1.5,2.1-13.2-9-13.2c-6.2,0-10.6,4.7-12.4,13.2
	H376.9z M253.5,252c0,9.4,4.5,15.8,14.8,20.7c7.9,3.7,9.1,4.8,9.1,8.2c0,4.6-3.5,6.7-11.2,6.7c-5.8,0-11.2-0.9-17.5-2.9
	c0,0-2.6,16.3-2.7,17.1c4.4,1,8.4,1.9,20.3,2.2c20.6,0,30.1-7.8,30.1-24.8c0-10.2-4-16.1-13.7-20.6c-8.2-3.8-9.1-4.6-9.1-8
	c0-4,3.2-6,9.5-6c3.8,0,9,0.4,14,1.1l2.8-17.2c-5-0.8-12.7-1.4-17.1-1.4C260.9,226.9,253.4,238.3,253.5,252 M482.6,228.9
	c5.4,0,10.5,1.4,17.4,4.9l3.2-19.8c-2.9-1.1-12.9-7.7-21.4-7.7c-13,0-24.1,6.5-31.8,17.1c-11.3-3.7-16,3.8-21.7,11.4l-5.1,1.2
	c0.4-2.5,0.7-4.9,0.6-7.4h-17.9c-2.4,22.9-6.8,46.1-10.2,69.1l-0.9,5h19.5c3.3-21.1,5-34.7,6.1-43.8l7.3-4.1
	c1.1-4.1,4.5-5.5,11.4-5.3c-0.9,5-1.4,10.1-1.4,15.2c0,24.2,13.1,39.3,34,39.3c5.4,0,10-0.7,17.2-2.7l3.4-20.8
	c-6.5,3.2-11.8,4.7-16.6,4.7c-11.3,0-18.2-8.4-18.2-22.2C457.8,243,468,228.9,482.6,228.9"/>
<path class="st3" d="M185.2,297.2h-19.5l11.2-70l-24.9,70h-13.3l-1.6-69.6l-11.7,69.6h-18.2l15.2-91h28l0.8,56.4l18.9-56.4h30.3
	L185.2,297.2"/>
<path d="M647.5,211.6l-4.3,26.3c-5.3-7-11.1-12.1-18.6-12.1c-9.8,0-18.8,7.5-24.6,18.4c-8.2-1.7-16.6-4.6-16.6-4.6l0,0.1
	c0.7-6.1,0.9-9.9,0.9-11.1h-17.9c-2.4,22.9-6.8,46.1-10.2,69.1l-0.9,5h19.5c2.6-17.1,4.7-31.3,6.1-42.6c6.7-6,10-11.3,16.7-10.9
	c-3,7.2-4.7,15.5-4.7,24c0,18.5,9.4,30.7,23.5,30.7c7.1,0,12.6-2.5,18-8.2l-0.9,6.9h18.4l14.8-91L647.5,211.6L647.5,211.6z
	 M623.2,285.5c-6.6,0-10-4.9-10-14.6c0-14.6,6.3-24.9,15.1-24.9c6.7,0,10.3,5.1,10.3,14.5C638.6,275.3,632.2,285.5,623.2,285.5
	L623.2,285.5z"/>
<path class="st3" d="M233.2,264.3c-2-0.2-2.9-0.3-4.3-0.3c-11,0-16.6,3.8-16.6,11.3c0,4.6,2.7,7.5,7,7.5
	C227.1,282.8,232.9,275.2,233.2,264.3z M247.4,297.2h-16.1l0.4-7.7c-4.9,6.1-11.5,9-20.4,9c-10.6,0-17.8-8.2-17.8-20.2
	c0-18,12.6-28.5,34.2-28.5c2.2,0,5,0.2,7.9,0.6c0.6-2.4,0.8-3.5,0.8-4.8c0-4.9-3.4-6.7-12.5-6.7c-9.5-0.1-17.4,2.3-20.6,3.3
	c0.2-1.2,2.7-16.6,2.7-16.6c9.7-2.9,16.1-3.9,23.3-3.9c16.7,0,25.6,7.5,25.6,21.7c0,3.8-0.6,8.5-1.6,14.7
	C251.5,268.7,247.9,291.7,247.4,297.2L247.4,297.2z M508.7,208.7l-3.2,19.8c-7-3.5-12-4.9-17.4-4.9c-14.6,0-24.8,14.1-24.8,34.1
	c0,13.8,6.9,22.2,18.2,22.2c4.8,0,10.1-1.5,16.6-4.7l-3.4,20.8c-7.2,2-11.8,2.7-17.2,2.7c-21,0-34-15.1-34-39.3
	c0-32.6,18.1-55.3,43.9-55.3C495.8,203.9,505.9,207.5,508.7,208.7 M540.2,264.3c-2-0.2-2.9-0.3-4.3-0.3c-11,0-16.6,3.8-16.6,11.3
	c0,4.6,2.7,7.5,7,7.5C534.1,282.8,539.9,275.2,540.2,264.3z M554.4,297.2h-16.2l0.4-7.7c-4.9,6.1-11.5,9-20.4,9
	c-10.6,0-17.8-8.2-17.8-20.2c0-18,12.6-28.5,34.2-28.5c2.2,0,5,0.2,7.9,0.6c0.6-2.4,0.8-3.5,0.8-4.8c0-4.9-3.4-6.7-12.5-6.7
	c-9.5-0.1-17.4,2.3-20.6,3.3c0.2-1.2,2.7-16.6,2.7-16.6c9.7-2.9,16.1-3.9,23.3-3.9c16.7,0,25.6,7.5,25.6,21.7
	c0,3.8-0.6,8.5-1.6,14.7C558.5,268.7,554.9,291.7,554.4,297.2L554.4,297.2z M334,296.1c-5.3,1.7-9.5,2.4-14,2.4
	c-10,0-15.4-5.7-15.4-16.3c-0.1-3.3,1.4-11.9,2.7-19.7c1.1-6.9,8.4-50.5,8.4-50.5h19.4l-2.3,11.2h9.9l-2.6,17.8h-10
	c-2.2,14.1-5.5,31.6-5.5,33.9c0,3.8,2,5.5,6.7,5.5c2.2,0,3.9-0.2,5.3-0.7L334,296.1 M393.4,295.5c-6.6,2-13.1,3-19.9,3
	c-21.7,0-33-11.3-33-33c0-25.3,14.4-43.9,33.9-43.9c16,0,26.2,10.4,26.2,26.8c0,5.4-0.7,10.7-2.4,18.2h-38.6
	c-1.3,10.7,5.6,15.2,16.8,15.2c6.9,0,13.2-1.4,20.1-4.7L393.4,295.5L393.4,295.5z M382.5,251.6c0.1-1.5,2.1-13.2-9-13.2
	c-6.2,0-10.6,4.7-12.4,13.2H382.5z M259.1,246.6c0,9.4,4.5,15.8,14.8,20.7c7.9,3.7,9.1,4.8,9.1,8.2c0,4.6-3.5,6.7-11.2,6.7
	c-5.8,0-11.2-0.9-17.5-2.9c0,0-2.6,16.3-2.7,17.1c4.4,1,8.4,1.9,20.3,2.2c20.6,0,30.1-7.8,30.1-24.7c0-10.2-4-16.1-13.7-20.6
	c-8.2-3.8-9.1-4.6-9.1-8c0-4,3.2-6.1,9.5-6.1c3.8,0,9,0.4,14,1.1l2.8-17.2c-5-0.8-12.7-1.4-17.1-1.4
	C266.5,221.5,259,232.9,259.1,246.6 M657.5,297.2h-18.4l0.9-6.9c-5.3,5.7-10.8,8.2-18,8.2c-14.2,0-23.5-12.2-23.5-30.7
	c0-24.6,14.5-45.4,31.7-45.4c7.6,0,13.3,3.1,18.6,10.1l4.3-26.3h19.2L657.5,297.2L657.5,297.2z M628.8,280.1
	c9.1,0,15.5-10.3,15.5-25c0-9.4-3.6-14.5-10.3-14.5c-8.8,0-15.1,10.3-15.1,24.9C618.8,275.2,622.1,280.1,628.8,280.1z M571.9,223.2
	c-2.4,22.9-6.8,46.1-10.2,69.1l-0.9,5h19.5c7-45.3,8.7-54.1,19.6-53c1.7-9.3,5-17.4,7.4-21.5c-8.2-1.7-12.7,2.9-18.7,11.7
	c0.5-3.8,1.3-7.5,1.2-11.2H571.9 M411.5,223.2c-2.4,22.9-6.8,46.1-10.2,69.1l-0.9,5h19.5c7-45.3,8.6-54.1,19.6-53
	c1.8-9.3,5-17.4,7.4-21.5c-8.2-1.7-12.7,2.9-18.7,11.7c0.5-3.8,1.3-7.5,1.2-11.2H411.5 M666.1,291.4c0-3.2,2.6-5.8,5.8-5.8
	c3.2,0,5.8,2.6,5.8,5.8v0c0,3.2-2.6,5.8-5.8,5.8C668.7,297.2,666.1,294.6,666.1,291.4L666.1,291.4z M671.9,295.9
	c2.4,0,4.4-2,4.4-4.4v0c0-2.4-2-4.4-4.4-4.4h0c-2.4,0-4.4,2-4.4,4.4C667.5,293.9,669.4,295.9,671.9,295.9L671.9,295.9z M671.1,294
	h-1.2v-5.1h2.2c0.4,0,0.9,0,1.3,0.3c0.4,0.3,0.7,0.8,0.7,1.3c0,0.6-0.3,1.1-0.9,1.3l0.9,2.2h-1.3l-0.8-2h-0.9V294L671.1,294
	L671.1,294z M671.1,291.1h0.7c0.2,0,0.5,0,0.7-0.1c0.2-0.1,0.3-0.4,0.3-0.6c0-0.2-0.1-0.4-0.3-0.5c-0.2-0.1-0.5-0.1-0.8-0.1h-0.6
	L671.1,291.1L671.1,291.1L671.1,291.1z"/>
</svg>
