<svg id="password_black_24dp_2_" data-name="password_black_24dp (2)" xmlns="http://www.w3.org/2000/svg" width="29.008" height="29.008" viewBox="0 0 29.008 29.008">
  <defs>
    <style>
      .cls-1 {
        fill: none;
      }

      .cls-2 {
        fill: #eb8eba;
      }
    </style>
  </defs>
  <g id="Group_1611" data-name="Group 1611">
    <path id="Path_1093" data-name="Path 1093" class="cls-1" d="M0,0H29.008V29.008H0Z"/>
  </g>
  <g id="Group_1613" data-name="Group 1613" transform="translate(1.209 8.461)">
    <g id="Group_1612" data-name="Group 1612">
      <path id="Path_1094" data-name="Path 1094" class="cls-2" d="M2.209,19.087H26.382V21.5H2.209Zm1.39-4.9L4.626,12.4l1.027,1.789,1.571-.907L6.2,11.5H8.252V9.683H6.2L7.225,7.907,5.653,7,4.626,8.777,3.6,7l-1.571.907L3.055,9.683H1V11.5H3.055L2.027,13.285Zm8.1-.907,1.571.907L14.3,12.4l1.027,1.789,1.571-.907L15.867,11.5h2.055V9.683H15.867l1.027-1.777L15.323,7,14.3,8.777,13.268,7,11.7,7.907l1.027,1.777H10.669V11.5h2.055Zm15.894-3.6H25.536l1.027-1.777L24.992,7,23.965,8.777,22.938,7l-1.571.907,1.027,1.777H20.339V11.5h2.055l-1.027,1.789,1.571.907L23.965,12.4l1.027,1.789,1.571-.907L25.536,11.5h2.055Z" transform="translate(-1 -7)"/>
    </g>
  </g>
</svg>
