<svg xmlns="http://www.w3.org/2000/svg" width="172.694" height="44.133" viewBox="0 0 172.694 44.133">
  <g id="paypal" transform="translate(0 -187.6)">
    <path id="Path_1374" data-name="Path 1374" d="M361.728,221.2h-9.32a1.821,1.821,0,0,0-1.371,1.1L347.2,246.419a.727.727,0,0,0,.822.822h4.934a.727.727,0,0,0,.822-.822l1.1-6.853a1.254,1.254,0,0,1,1.371-1.1h3.015q9.457,0,10.691-9.046a7.185,7.185,0,0,0-1.1-6.031,11.056,11.056,0,0,0-7.127-2.193m1.1,9.046c-.548,3.289-3.015,3.289-5.482,3.289H355.7l1.1-6.3c0-.274.274-.548.822-.548h.548c1.645,0,3.289,0,4.112,1.1.548.274.548,1.1.548,2.467" transform="translate(-228.233 -22.087)" fill="#139ad6"/>
    <g id="Group_2631" data-name="Group 2631" transform="translate(51.808 199.113)">
      <path id="Path_1375" data-name="Path 1375" d="M165.728,221.2h-9.32a1.821,1.821,0,0,0-1.371,1.1L151.2,246.419a.727.727,0,0,0,.822.822h4.386a1.821,1.821,0,0,0,1.371-1.1l1.1-6.579a1.254,1.254,0,0,1,1.371-1.1h3.015q9.457,0,10.691-9.046a7.185,7.185,0,0,0-1.1-6.031c-1.645-1.371-3.838-2.193-7.127-2.193m1.1,9.046c-.548,3.289-3.015,3.289-5.482,3.289h-1.371l1.1-6.3c0-.274.274-.548.822-.548h.548c1.645,0,3.289,0,4.112,1.1a2.936,2.936,0,0,1,.274,2.467" transform="translate(-151.2 -221.2)" fill="#263b80"/>
      <path id="Path_1376" data-name="Path 1376" d="M235.178,245.748h-4.386c-.274,0-.822.274-.822.548l-.274,1.371-.274-.548c-1.1-1.371-3.015-1.919-5.208-1.919a10.533,10.533,0,0,0-10.142,9.046,8.17,8.17,0,0,0,1.645,6.853c1.371,1.645,3.289,2.193,5.756,2.193a8.762,8.762,0,0,0,6.3-2.467L227.5,262.2a.727.727,0,0,0,.822.822h4.112a1.821,1.821,0,0,0,1.371-1.1l2.467-15.351c-.274-.274-.822-.822-1.1-.822m-6.3,8.772a5.3,5.3,0,0,1-5.208,4.386,4.383,4.383,0,0,1-3.015-1.1,5.846,5.846,0,0,1-.822-3.289,4.889,4.889,0,0,1,7.949-3.289,4.786,4.786,0,0,1,1.1,3.289" transform="translate(-192.415 -236.976)" fill="#263b80"/>
    </g>
    <path id="Path_1377" data-name="Path 1377" d="M430.378,245.748h-4.386c-.274,0-.822.274-.822.548l-.274,1.371-.274-.548c-1.1-1.371-3.015-1.919-5.208-1.919a10.533,10.533,0,0,0-10.142,9.046,8.171,8.171,0,0,0,1.645,6.853c1.371,1.645,3.289,2.193,5.756,2.193a8.762,8.762,0,0,0,6.3-2.467L422.7,262.2a.727.727,0,0,0,.822.822h4.112a1.821,1.821,0,0,0,1.371-1.1l2.467-15.351c-.274-.274-.548-.822-1.1-.822m-6.3,8.772a5.3,5.3,0,0,1-5.208,4.386,4.383,4.383,0,0,1-3.015-1.1,5.846,5.846,0,0,1-.822-3.289,4.889,4.889,0,0,1,7.949-3.289,3.146,3.146,0,0,1,1.1,3.289" transform="translate(-268.922 -37.864)" fill="#139ad6"/>
    <path id="Path_1378" data-name="Path 1378" d="M305.107,246.8h-4.66a1.424,1.424,0,0,0-1.1.548l-6.031,9.32-2.741-8.772a1.266,1.266,0,0,0-1.371-.822h-4.386c-.548,0-.822.548-.822,1.1l4.934,14.528-4.66,6.579c-.274.548,0,1.371.548,1.371h4.386a1.424,1.424,0,0,0,1.1-.548l15.076-21.655c.822-.822.274-1.645-.274-1.645" transform="translate(-186.688 -38.915)" fill="#263b80"/>
    <path id="Path_1379" data-name="Path 1379" d="M479.038,222.342,475.2,247.012a.727.727,0,0,0,.822.822h3.838a1.821,1.821,0,0,0,1.371-1.1l3.838-24.122a.727.727,0,0,0-.822-.822H479.86c-.274-.274-.548,0-.822.548" transform="translate(-312.374 -22.407)" fill="#139ad6"/>
    <path id="Path_1380" data-name="Path 1380" d="M31.523,190.889C29.6,188.7,26.041,187.6,21.107,187.6H7.4a2.352,2.352,0,0,0-1.919,1.645L0,225.154a1.254,1.254,0,0,0,1.1,1.371h8.5l2.193-13.432v.548A2.352,2.352,0,0,1,13.706,212h4.112c7.949,0,13.98-3.289,15.9-12.335v-.822h0c.274-3.564-.274-5.756-2.193-7.949" fill="#263b80"/>
    <path id="Path_1381" data-name="Path 1381" d="M50.271,220.4h0v.822c-1.919,9.32-7.949,12.335-15.9,12.335H30.26a2.352,2.352,0,0,0-1.919,1.645L25.6,251.923a1,1,0,0,0,1.1,1.1h7.127a1.535,1.535,0,0,0,1.645-1.371v-.274l1.371-8.5v-.548a1.535,1.535,0,0,1,1.645-1.371h1.1c6.853,0,12.335-2.741,13.706-10.965.548-3.289.274-6.3-1.371-8.224a2.807,2.807,0,0,0-1.645-1.371" transform="translate(-16.828 -21.561)" fill="#139ad6"/>
    <path id="Path_1382" data-name="Path 1382" d="M54.136,216.422c-.274,0-.548-.274-.822-.274a1.007,1.007,0,0,1-.822-.274,14.482,14.482,0,0,0-3.564-.274H38.238a1.007,1.007,0,0,0-.822.274,1.508,1.508,0,0,0-.822,1.371L34.4,231.5v.548a2.352,2.352,0,0,1,1.919-1.645h4.112c7.949,0,13.98-3.289,15.9-12.335a1.007,1.007,0,0,1,.274-.822c-.548-.274-.822-.548-1.371-.548-.822-.274-.822-.274-1.1-.274" transform="translate(-22.613 -18.406)" fill="#232c65"/>
  </g>
</svg>
