<svg xmlns="http://www.w3.org/2000/svg" width="104.837" height="104.835" viewBox="0 0 104.837 104.835">
  <defs>
    <style>
      .cls-1 {
        fill: #eea1c5;
      }
    </style>
  </defs>
  <path id="Icon_awesome-book-reader" data-name="Icon awesome-book-reader" class="cls-1" d="M72.074,19.656A19.656,19.656,0,1,0,52.417,39.313,19.656,19.656,0,0,0,72.074,19.656ZM47.829,49.366C35.681,41.93,16,39.886,6.1,39.323A5.665,5.665,0,0,0,0,44.87V90.489a5.632,5.632,0,0,0,5.424,5.539c8.94.469,27.026,2.187,39.526,8.483a2.85,2.85,0,0,0,4.193-2.43V51.713a2.724,2.724,0,0,0-1.315-2.346Zm50.9-10.043c-9.9.561-29.579,2.607-41.725,10.043A2.775,2.775,0,0,0,55.7,51.748v50.327a2.859,2.859,0,0,0,4.206,2.437c12.5-6.29,30.574-8.008,39.512-8.477a5.635,5.635,0,0,0,5.424-5.541V44.87A5.668,5.668,0,0,0,98.733,39.323Z"/>
</svg>
