<svg xmlns="http://www.w3.org/2000/svg" width="73" height="50.344" viewBox="0 0 73 50.344">
  <g id="visa" transform="translate(0 -79.451)">
    <path id="Path_1400" data-name="Path 1400" d="M73,125.48a4.315,4.315,0,0,1-4.315,4.315H4.315A4.315,4.315,0,0,1,0,125.48V83.766a4.315,4.315,0,0,1,4.315-4.315h64.37A4.315,4.315,0,0,1,73,83.766V125.48Z" transform="translate(0 0)" fill="#fff"/>
    <path id="Path_1401" data-name="Path 1401" d="M42.356,199.471l-1.714-8.223a2.044,2.044,0,0,0-2.211-1.516H30.572l-.07.376C36.623,191.591,40.673,195.171,42.356,199.471Z" transform="translate(-26.153 -94.557)" fill="#f79f1a"/>
    <g id="Group_2635" data-name="Group 2635" transform="translate(0 79.451)">
      <path id="Path_1402" data-name="Path 1402" d="M191.748,190.892H186.67L183.5,209.5h5.069Z" transform="translate(-157.336 -175.003)" fill="#059bbf"/>
      <path id="Path_1403" data-name="Path 1403" d="M75.746,209.56l7.986-18.579H78.358l-4.968,12.693-.53-1.917a19.857,19.857,0,0,0-7.024-7.713l4.541,15.521Z" transform="translate(-56.449 -175.079)" fill="#059bbf"/>
      <path id="Path_1404" data-name="Path 1404" d="M255.838,201.5c.019-2.113-1.338-3.724-4.261-5.056-1.777-.86-2.86-1.433-2.847-2.305,0-.771.917-1.6,2.9-1.6a9.365,9.365,0,0,1,3.8.713l.459.21.688-4.032a13.151,13.151,0,0,0-4.548-.777c-5.013,0-8.541,2.522-8.573,6.14-.032,2.675,2.522,4.166,4.446,5.057,1.974.909,2.637,1.49,2.624,2.306-.013,1.247-1.573,1.815-3.032,1.815a10.643,10.643,0,0,1-4.778-.976l-.649-.3-.713,4.17a16,16,0,0,0,5.649.988C252.335,207.862,255.8,205.372,255.838,201.5Z" transform="translate(-206.944 -173.088)" fill="#059bbf"/>
      <path id="Path_1405" data-name="Path 1405" d="M346.779,206.829l6.5.006c.153.648.618,2.79.618,2.79H358.6l-4.108-18.6h-3.917a2.524,2.524,0,0,0-2.656,1.541l-7.535,17.056h5.331S346.582,207.332,346.779,206.829Zm3.477-9.012c-.025.051.421-1.076.675-1.777l.344,1.6s.968,4.446,1.172,5.376h-4.21C348.658,201.95,350.257,197.816,350.257,197.816Z" transform="translate(-291.854 -175.119)" fill="#059bbf"/>
      <path id="Path_1406" data-name="Path 1406" d="M68.685,79.451H4.315A4.315,4.315,0,0,0,0,83.766v4.479H73V83.766A4.315,4.315,0,0,0,68.685,79.451Z" transform="translate(0 -79.451)" fill="#059bbf"/>
    </g>
    <path id="Path_1407" data-name="Path 1407" d="M68.685,379.665H4.315A4.315,4.315,0,0,1,0,375.35v-4.479H73v4.479A4.315,4.315,0,0,1,68.685,379.665Z" transform="translate(0 -249.87)" fill="#f79f1a"/>
    <path id="Path_1408" data-name="Path 1408" d="M3.068,125.48V83.766a4.315,4.315,0,0,1,4.315-4.315H4.315A4.315,4.315,0,0,0,0,83.766V125.48A4.315,4.315,0,0,0,4.315,129.8H7.383A4.316,4.316,0,0,1,3.068,125.48Z" transform="translate(0 0)" fill="#202121" opacity="0.15"/>
  </g>
</svg>
