<svg xmlns="http://www.w3.org/2000/svg" width="39.032" height="36.642" viewBox="0 0 39.032 36.642">
  <defs>
    <style>
      .cls-1 {
        fill: #fff;
      }
    </style>
  </defs>
  <g id="Social_Buttons_Base_Button_Facebook" data-name="Social Buttons / Base Button / Facebook" transform="translate(-0.003 0.015)">
    <path id="Path_786" data-name="Path 786" class="cls-1" d="M37.324,44.215a10.645,10.645,0,0,0-2.074.078,4.871,4.871,0,0,0-2.2.455c-.64.495-.569,1.366-.559,2.092a22.009,22.009,0,0,0,.235,2.693,1.072,1.072,0,0,0,1.028.783c1.039.036,2.074.039,3.113.078,1.373.05,1.373-2.085,0-2.135-1.039-.036-2.074-.039-3.113-.078l1.028.783a16.482,16.482,0,0,1-.146-1.672c-.011-.253-.014-.505-.014-.754,0-.1,0-.2,0-.3.014-.366.014-.4-.007-.11-.213.164-.427.327-.637.491a11.086,11.086,0,0,1,3.337-.263c1.373.085,1.366-2.049,0-2.138Z" transform="translate(-20.926 -28.48)"/>
    <path id="Path_787" data-name="Path 787" class="cls-1" d="M42.378,56.675a59.352,59.352,0,0,0,.174,7.418c.117,1.359,2.252,1.37,2.135,0a60.711,60.711,0,0,1-.174-7.418c.053-1.373-2.081-1.373-2.135,0Z" transform="translate(-27.27 -35.856)"/>
    <path id="Path_788" data-name="Path 788" class="cls-1" d="M44.085,78.381c1.462.043,2.925-.014,4.383-.078,1.37-.06,1.377-2.2,0-2.135-1.462.064-2.921.121-4.383.078a1.068,1.068,0,0,0,0,2.135Z" transform="translate(-27.734 -49.077)"/>
    <path id="Path_789" data-name="Path 789" class="cls-1" d="M56.983,64.5q-.278-3.533-.224-7.073a1.068,1.068,0,0,0-2.135,0q-.053,3.544.224,7.073c.107,1.359,2.245,1.37,2.135,0Z" transform="translate(-35.182 -36.34)"/>
    <path id="Path_790" data-name="Path 790" class="cls-1" d="M55.537,58.061c1.288.071,2.576-.025,3.864.046,1.373.078,1.37-2.056,0-2.135-1.288-.071-2.576.025-3.864-.046-1.373-.078-1.37,2.056,0,2.135Z" transform="translate(-35.111 -36.036)"/>
    <path id="Path_791" data-name="Path 791" class="cls-1" d="M67.156,49.243c-.117-1.462-.1-2.925-.132-4.39a1.068,1.068,0,0,0-2.135,0c.028,1.466.014,2.928.132,4.39.107,1.359,2.245,1.37,2.135,0Z" transform="translate(-41.799 -28.239)"/>
    <path id="Path_792" data-name="Path 792" class="cls-1" d="M60.188,43.718c-1.078.043-2.156.057-3.231.146-1.359.114-1.37,2.249,0,2.135,1.074-.089,2.153-.1,3.231-.146,1.37-.057,1.377-2.192,0-2.135Z" transform="translate(-36.029 -28.173)"/>
    <path id="Path_793" data-name="Path 793" class="cls-1" d="M57.241,36.955a14.8,14.8,0,0,0-.089-1.775c-.028-.37-.192-1.3.16-1.587a.832.832,0,0,1,1.171.267c.331.491.395.882.9,1.274,1.089.836,2.156-1.018,1.078-1.843.327.253.071-.125-.021-.306a3.344,3.344,0,0,0-.345-.516,3.211,3.211,0,0,0-1.107-.918,3.16,3.16,0,0,0-2.633.146c-2,.943-1.185,3.544-1.252,5.262-.057,1.373,2.081,1.37,2.135,0Z" transform="translate(-35.428 -20.188)"/>
    <path id="Path_794" data-name="Path 794" class="cls-1" d="M51.927,28.064c2.22.537,3.665-1.644,3.174-3.69-.523-2.17-2.75-3.583-4.817-4.013-2.131-.445-4.7-.107-6.127,1.694-1.647,2.074-.971,5.326-1.11,7.76-.078,1.373,2.056,1.37,2.135,0,.125-2.163-.765-6.041,1.654-7.155a5.219,5.219,0,0,1,3.636-.032,4.888,4.888,0,0,1,1.644.929,2.381,2.381,0,0,1,.7.772,1.17,1.17,0,0,1-.317,1.679c-1.338-.324-1.907,1.733-.569,2.056Z" transform="translate(-27.713 -13.013)"/>
    <path id="Path_795" data-name="Path 795" class="cls-1" d="M9.445,34.132c-1.69-.018-4.1.011-5.394-1.3-1.06-1.074-.993-3.028-1.042-4.433Q2.8,22.412,2.564,16.431q-.123-3.149-.235-6.3C2.251,7.985,1.742,4.68,3.951,3.374c1.783-1.05,4.355-.779,6.351-.865q4.115-.176,8.229-.27,3.432-.08,6.863-.1c2.679-.018,5.547-.21,8.172.434a4.188,4.188,0,0,1,2.569,1.42c.69,1.021.559,2.43.58,3.6.05,2.761.071,5.522.082,8.286.021,4.988.253,10.09-.1,15.068-.164,2.323-1.932,2.7-3.885,2.942-1.281.16-2.576.228-3.867.292a152.409,152.409,0,0,1-19.5-.05v2.135h0a1.068,1.068,0,0,0,0-2.135h0a1.068,1.068,0,0,0,0,2.135,146.231,146.231,0,0,0,20.817-.025c2.928-.185,7.294-.221,8.322-3.618.772-2.551.317-5.817.334-8.461q.032-4.488.011-8.977c-.014-3.049.082-6.141-.125-9.186a5.354,5.354,0,0,0-3.031-4.931C33.557.026,30.842.008,28.444-.01c-3.074-.021-6.152.025-9.226.093Q14.762.19,10.3.375C7.961.474,5.25.307,3.108,1.414-1.225,3.655.194,10.259.344,14.165c.2,5.17.171,10.4.6,15.552.157,1.886.466,3.793,2.056,5,1.807,1.373,4.259,1.526,6.447,1.548A1.068,1.068,0,0,0,9.445,34.132Z"/>
  </g>
</svg>
